<svg width="20px" height="20px" viewBox="0 0 20 20" version="1.1" xmlns="http://www.w3.org/2000/svg" xmlns:xlink="http://www.w3.org/1999/xlink">
    <defs>
        <path d="M15.1760252,13.7618116 L19.7071068,18.2928932 C20.0976311,18.6834175 20.0976311,19.3165825 19.7071068,19.7071068 C19.3165825,20.0976311 18.6834175,20.0976311 18.2928932,19.7071068 L13.7618116,15.1760252 C12.3145189,16.3182963 10.4868697,17 8.5,17 C3.80557963,17 3.65929509e-13,13.1944204 3.65929509e-13,8.5 C3.65929509e-13,3.80557963 3.80557963,0 8.5,0 C13.1944204,0 17,3.80557963 17,8.5 C17,10.4868697 16.3182963,12.3145189 15.1760252,13.7618116 Z M13.1597589,13.0317433 C14.2986171,11.8609174 15,10.2623671 15,8.5 C15,4.91014913 12.0898509,2 8.5,2 C4.91014913,2 2,4.91014913 2,8.5 C2,12.0898509 4.91014913,15 8.5,15 C10.2623671,15 11.8609174,14.2986171 13.0317433,13.1597589 C13.0509347,13.1367843 13.071318,13.1144685 13.0928932,13.0928932 C13.1144685,13.071318 13.1367843,13.0509347 13.1597589,13.0317433 Z" id="path-1"></path>
    </defs>
    <g id="Symbols" stroke="none" stroke-width="1" fill="none" fill-rule="evenodd">
        <g id="Icon/search">
            <g id="Atom/Colour/White">
                <mask id="mask-2" fill="white">
                    <use xlink:href="#path-1"></use>
                </mask>
                <use id="Mask" fill="#000000" fill-rule="nonzero" xlink:href="#path-1"></use>
                <g id="Colour/White" mask="url(#mask-2)"></g>
            </g>
        </g>
    </g>
</svg>
