<svg xmlns="http://www.w3.org/2000/svg" xmlns:xlink="http://www.w3.org/1999/xlink" width="20" height="20" viewBox="0 0 20 20">
    <defs>
        <path id="a" d="M20 2c0-1.1-.9-2-2-2h-6c-.6 0-1 .4-1 1s.4 1 1 1h4.4l-6.3 6.3c-.4.4-.4 1 0 1.4.2.2.5.3.7.3.2 0 .5-.1.7-.3L18 3.3V8c0 .6.4 1 1 1s1-.4 1-1V2zm0 10c0-.6-.4-1-1-1s-1 .4-1 1v4.4c0 .9-.7 1.6-1.6 1.6H3.6c-.9 0-1.6-.7-1.6-1.6V3.6C2 2.7 2.7 2 3.6 2H8c.5 0 1-.4 1-1s-.4-1-1-1H2C.9 0 0 .9 0 2v16c0 1.1.9 2 2 2h16c1.1 0 2-.9 2-2v-6z"/>
    </defs>
    <g fill="none" fill-rule="evenodd">
        <mask id="b" fill="#fff">
            <use xlink:href="#a"/>
        </mask>
        <use fill="#FFF" fill-rule="nonzero" xlink:href="#a"/>
    </g>
</svg>
