<svg xmlns="http://www.w3.org/2000/svg" xmlns:xlink="http://www.w3.org/1999/xlink" width="20" height="20" viewBox="0 0 20 20">
    <defs>
        <path id="a" d="M10.04 14.778c.404.246.752.425 1.11.551.69.242 1.348.258 1.948-.071.542-.297.878-.694 1.262-1.335l.175-.295c.282-.476.213-.434.48-.325.477.194.907.415 1.72.866.518.288.538.299.734.405.666.357.68.435.262 1.707l-.045.137-.061.184 1.884.62c.045-.102.086-.208.121-.316l-1.9-.625c-.344 1.046-1.907 1.828-3.247 1.707-1.745-.158-3.853-1.072-5.702-2.38-2.485-1.757-4.765-4.461-6.075-7.247-.965-2.053-.956-4.17.15-5.611.403-.525.74-.72 1.285-.748.4-.019.408-.012.627.534.044.11.224.583.22.572.098.257.165.417.383.93.309.728.447 1.088.558 1.489.093.336.072.387-.273.74l-.095.095c-.564.575-.846 1.002-.95 1.706-.076.507.047 1.008.307 1.529.163.326.373.649.643 1.008.143.191.55.702.566.723a13.122 13.122 0 0 0 3.386 3.118c-.094-.06.388.248.528.332zm7.6 1.776l-.015.048 1.9.626.211-.643-1.9-.626-.105.321 1.9.627.105-.322-1.9-.626-.15.459-.046.136zm1.884.674l.106-.321c.687-2.086.482-3.183-1.213-4.094-.184-.1-.204-.11-.71-.392-.881-.489-1.363-.737-1.936-.97-1.392-.568-2.228-.068-2.956 1.155l-.17.289c-.216.36-.357.526-.507.609-.023.012-.121.01-.324-.061a4.053 4.053 0 0 1-.733-.372c-.118-.072-.57-.36-.503-.318a11.127 11.127 0 0 1-2.865-2.643c-.033-.043-.43-.542-.552-.705a4.753 4.753 0 0 1-.453-.7c-.094-.189-.124-.312-.12-.343.027-.178.108-.301.401-.6l.095-.096c.794-.81 1.09-1.522.772-2.672-.14-.512-.302-.93-.644-1.737-.208-.49-.27-.639-.358-.867.01.026-.177-.468-.23-.6C6.117.53 5.417-.061 4.042.006c-1.165.058-2.03.56-2.773 1.527C-.348 3.641-.36 6.54.896 9.212c1.458 3.1 3.964 6.073 6.73 8.029 2.114 1.495 4.536 2.545 6.677 2.738 2.071.187 4.396-.91 5.206-2.756l.015.005z"/>
    </defs>
    <g fill="none" fill-rule="evenodd">
        <mask id="b" fill="#fff">
            <use xlink:href="#a"/>
        </mask>
        <use fill="#979797" fill-rule="nonzero" xlink:href="#a"/>
    </g>
</svg>
