<svg xmlns="http://www.w3.org/2000/svg" xmlns:xlink="http://www.w3.org/1999/xlink" width="20" height="20" viewBox="0 0 20 20">
    <defs>
        <path id="a" d="M18 10c0-4.411-3.589-8-8-8s-8 3.589-8 8 3.589 8 8 8 8-3.589 8-8m2 0c0 5.523-4.477 10-10 10S0 15.523 0 10 4.477 0 10 0s10 4.477 10 10m-4 1a1 1 0 0 1-1 1h-4a2 2 0 0 1-2-2V5a1 1 0 0 1 2 0v4c0 .55.45 1 1 1h3a1 1 0 0 1 1 1"/>
    </defs>
    <g fill="none" fill-rule="evenodd">
        <mask id="b" fill="#fff">
            <use xlink:href="#a"/>
        </mask>
        <use fill="#000" xlink:href="#a"/>
    </g>
</svg>
